<svg width="28" height="33" viewBox="0 0 28 33" fill="none" xmlns="http://www.w3.org/2000/svg">
<path fill-rule="evenodd" clip-rule="evenodd" d="M8.95105 1.61163C8.95105 0.931894 9.50208 0.380859 10.1818 0.380859H16.8951C17.5748 0.380859 18.1259 0.931894 18.1259 1.61163C18.1259 2.29136 17.5748 2.8424 16.8951 2.8424H10.1818C9.50208 2.8424 8.95105 2.29136 8.95105 1.61163ZM13.5385 7.38678C7.43849 7.38678 2.46154 12.4131 2.46154 18.653C2.46154 24.893 7.43849 29.9193 13.5385 29.9193C19.6384 29.9193 24.6154 24.893 24.6154 18.653C24.6154 12.4131 19.6384 7.38678 13.5385 7.38678ZM0 18.653C0 11.0892 6.04373 4.92524 13.5385 4.92524C21.0332 4.92524 27.0769 11.0892 27.0769 18.653C27.0769 26.2169 21.0332 32.3809 13.5385 32.3809C6.04373 32.3809 0 26.2169 0 18.653ZM19.9405 12.1519C20.4248 12.6288 20.4308 13.4081 19.9538 13.8924L14.4154 19.5161C13.9384 20.0004 13.1591 20.0063 12.6748 19.5294C12.1905 19.0524 12.1846 18.2731 12.6616 17.7888L18.2 12.1652C18.677 11.6809 19.4562 11.6749 19.9405 12.1519Z" fill="white"/>
</svg>
