<svg width="35" height="33" viewBox="0 0 35 33" fill="none" xmlns="http://www.w3.org/2000/svg">
<path fill-rule="evenodd" clip-rule="evenodd" d="M26.2598 0.380894C26.9153 0.378349 27.5647 0.514435 28.1708 0.781334C28.7777 1.04861 29.3292 1.44178 29.7933 1.93816C30.2575 2.43454 30.6251 3.0243 30.875 3.67341C31.1246 4.32152 31.2518 5.01598 31.2495 5.71685L31.2494 5.72012L30.0027 5.71453H31.2495V5.71685V24.3823C31.2495 25.1187 30.6912 25.7157 30.0027 25.7157C29.3141 25.7157 28.7559 25.1187 28.7559 24.3823V5.71453L28.7559 5.70894C28.7572 5.35905 28.6938 5.01233 28.5692 4.68879C28.4447 4.36526 28.2614 4.0713 28.0301 3.82389C27.7988 3.57648 27.5239 3.38051 27.2214 3.24729C26.9189 3.11407 26.5947 3.04623 26.2675 3.0477L26.2623 3.04771H5.06675C4.37817 3.04771 3.81996 2.45072 3.81996 1.7143C3.81996 0.977882 4.37817 0.380894 5.06675 0.380894H26.2598ZM26.2598 0.380894L26.257 0.380906L26.2623 1.7143V0.380894H26.2598Z" fill="white"/>
<path fill-rule="evenodd" clip-rule="evenodd" d="M13.7926 12.3856C13.7926 11.6492 14.3508 11.0522 15.0394 11.0522H25.0137C25.7023 11.0522 26.2605 11.6492 26.2605 12.3856C26.2605 13.1221 25.7023 13.719 25.0137 13.719H15.0394C14.3508 13.719 13.7926 13.1221 13.7926 12.3856Z" fill="white"/>
<path fill-rule="evenodd" clip-rule="evenodd" d="M13.7926 17.7213C13.7926 16.9849 14.3508 16.3879 15.0394 16.3879H25.0137C25.7023 16.3879 26.2605 16.9849 26.2605 17.7213C26.2605 18.4577 25.7023 19.0547 25.0137 19.0547H15.0394C14.3508 19.0547 13.7926 18.4577 13.7926 17.7213Z" fill="white"/>
<path fill-rule="evenodd" clip-rule="evenodd" d="M5.36131 3.06685C4.9601 3.01555 4.55324 3.0693 4.17575 3.22346C3.79827 3.37762 3.46147 3.62758 3.19434 3.95182C2.92721 4.27606 2.73777 4.66487 2.6423 5.08477C2.54684 5.50468 2.54823 5.94311 2.64633 6.36232C2.74444 6.78153 2.93634 7.16896 3.2055 7.49127C3.66419 8.04051 3.6197 8.88344 3.10613 9.37399C2.59256 9.86455 1.80439 9.81697 1.3457 9.26772C0.80737 8.62311 0.423579 7.84825 0.227361 7.00983C0.0311435 6.17141 0.0283777 5.29455 0.219302 4.45473C0.410227 3.61492 0.789122 2.8373 1.32337 2.18882C1.85762 1.54034 2.53122 1.04042 3.28619 0.732103C4.04116 0.423782 4.85489 0.316293 5.65731 0.418888C6.45974 0.521483 7.22683 0.831088 7.89257 1.32105C8.5583 1.81102 9.10273 2.46667 9.47898 3.23156C9.85524 3.99646 10.0521 4.84768 10.0525 5.71196V27.0465C10.0527 27.4786 10.1511 27.9043 10.3392 28.2867C10.5274 28.6692 10.7996 28.997 11.1324 29.242C11.4653 29.4869 11.8489 29.6417 12.2501 29.693C12.6513 29.7443 13.0581 29.6906 13.4356 29.5364C13.8131 29.3823 14.1499 29.1323 14.417 28.8081C14.6842 28.4838 14.8736 28.095 14.9691 27.6751C15.0645 27.2552 15.0632 26.8168 14.9651 26.3976C14.8669 25.9784 14.675 25.5909 14.4059 25.2686C14.0785 24.8766 13.997 24.3154 14.1978 23.8356C14.3986 23.3558 14.8443 23.047 15.3358 23.047H32.7909C33.1457 23.047 33.4837 23.2086 33.7202 23.4915C34.3622 24.2591 34.7826 25.209 34.9308 26.2266C35.079 27.2441 34.9485 28.2858 34.5552 29.2258C34.1618 30.1658 33.5225 30.964 32.7142 31.5238C31.9062 32.0836 30.9639 32.3812 30.0012 32.3809H12.5461C12.5184 32.3809 12.4909 32.3799 12.4637 32.378C12.2938 32.375 12.1237 32.3627 11.9541 32.341C11.1516 32.2384 10.3845 31.9288 9.71882 31.4388C9.05308 30.9489 8.50866 30.2932 8.1324 29.5283C7.75615 28.7634 7.55933 27.9122 7.5589 27.0479V5.71339C7.55868 5.28125 7.46027 4.85564 7.27215 4.47319C7.08402 4.09074 6.8118 3.76292 6.47894 3.51793C6.14607 3.27295 5.76252 3.11815 5.36131 3.06685ZM16.8639 29.714H30.0012C30.4827 29.7143 30.9545 29.5655 31.3586 29.2855C31.7627 29.0056 32.0824 28.6065 32.2791 28.1365C32.4757 27.6665 32.541 27.1457 32.4669 26.6369C32.4193 26.3102 32.3156 25.9974 32.1625 25.7138H17.3754C17.3783 25.7259 17.3812 25.738 17.384 25.7501C17.5802 26.5885 17.583 27.4653 17.3921 28.3052C17.2793 28.8011 17.1011 29.2753 16.8639 29.714Z" fill="white"/>
</svg>
