<svg width="28" height="33" viewBox="0 0 28 33" fill="none" xmlns="http://www.w3.org/2000/svg">
<path fill-rule="evenodd" clip-rule="evenodd" d="M2.23241 0.692317C2.60919 0.479085 3.03518 0.371777 3.46642 0.381461C3.89676 0.391125 4.31679 0.516938 4.68336 0.745949C4.68414 0.746435 4.68492 0.746922 4.6857 0.747409L26.481 14.2806C26.8373 14.4967 27.1327 14.8026 27.3384 15.1688C27.5459 15.538 27.6549 15.9558 27.6549 16.3809C27.6549 16.806 27.5459 17.2237 27.3384 17.593C27.1327 17.9591 26.8373 18.2651 26.481 18.4812L4.6857 32.0143C4.68479 32.0149 4.68389 32.0154 4.68298 32.016C4.31649 32.2449 3.89661 32.3706 3.46642 32.3803C3.03518 32.3899 2.60919 32.2826 2.23241 32.0694C1.85563 31.8562 1.5417 31.5447 1.323 31.1672C1.1043 30.7897 0.988757 30.3598 0.988281 29.9218V2.83989C0.988757 2.40192 1.1043 1.972 1.323 1.59449C1.5417 1.21698 1.85563 0.90555 2.23241 0.692317ZM25.8549 15.3346L25.2298 16.3726L25.2377 16.3677C25.2355 16.3691 25.2337 16.371 25.2324 16.3732C25.2311 16.3756 25.2304 16.3782 25.2304 16.3809C25.2304 16.3835 25.2311 16.3862 25.2324 16.3885C25.2337 16.3908 25.2356 16.3927 25.2379 16.3941L25.8549 15.3346ZM25.2163 16.3809L3.41281 2.84262L3.41281 29.9191L3.4168 29.9166L25.2163 16.3809Z" fill="white"/>
</svg>
